<!-- Ceci est un SVG Sprite. -->
<!-- Tout comme les sprites d'images sont des collections d'images placées dans une seule image, les SVG Sprites sont une collections de SVG enveloppée dans une balise <symbol>, qui est placée dans une balise <svg> -->

<svg>
    <defs>
        <!-- UTILITAIRES -->
        
        <symbol id="icon-hamburger" xmlns="http://www.w3.org/2000/svg" width="100%" height="100%" fill="currentColor" class="bi bi-list" viewBox="0 0 16 16">
            <path fill-rule="evenodd" d="M2.5 12a.5.5 0 0 1 .5-.5h10a.5.5 0 0 1 0 1H3a.5.5 0 0 1-.5-.5m0-4a.5.5 0 0 1 .5-.5h10a.5.5 0 0 1 0 1H3a.5.5 0 0 1-.5-.5m0-4a.5.5 0 0 1 .5-.5h10a.5.5 0 0 1 0 1H3a.5.5 0 0 1-.5-.5"/>
        </symbol>

        
        <symbol id="icon-caretdown" viewBox="0 0 15 15" fill="none" xmlns="http://www.w3.org/2000/svg">
            <path fill-rule="evenodd" clip-rule="evenodd" d="M4.18179 6.18181C4.35753 6.00608 4.64245 6.00608 4.81819 6.18181L7.49999 8.86362L10.1818 6.18181C10.3575 6.00608 10.6424 6.00608 10.8182 6.18181C10.9939 6.35755 10.9939 6.64247 10.8182 6.81821L7.81819 9.81821C7.73379 9.9026 7.61934 9.95001 7.49999 9.95001C7.38064 9.95001 7.26618 9.9026 7.18179 9.81821L4.18179 6.81821C4.00605 6.64247 4.00605 6.35755 4.18179 6.18181Z" fill="currentColor"/>
        </symbol>

        <!-- SYMBOLES QUELCONQUES -->

        <symbol id="icon-home" xmlns="http://www.w3.org/2000/svg" fill="currentColor" class="bi bi-house-door" viewBox="0 0 16 16">
            <path d="M8.354 1.146a.5.5 0 0 0-.708 0l-6 6A.5.5 0 0 0 1.5 7.5v7a.5.5 0 0 0 .5.5h4.5a.5.5 0 0 0 .5-.5v-4h2v4a.5.5 0 0 0 .5.5H14a.5.5 0 0 0 .5-.5v-7a.5.5 0 0 0-.146-.354L13 5.793V2.5a.5.5 0 0 0-.5-.5h-1a.5.5 0 0 0-.5.5v1.293zM2.5 14V7.707l5.5-5.5 5.5 5.5V14H10v-4a.5.5 0 0 0-.5-.5h-3a.5.5 0 0 0-.5.5v4z"/>
        </symbol>

        <symbol id="icon-tel" xmlns="http://www.w3.org/2000/svg" fill="currentColor" class="bi bi-telephone" viewBox="0 0 16 16">
            <path d="M3.654 1.328a.678.678 0 0 0-1.015-.063L1.605 2.3c-.483.484-.661 1.169-.45 1.77a17.6 17.6 0 0 0 4.168 6.608 17.6 17.6 0 0 0 6.608 4.168c.601.211 1.286.033 1.77-.45l1.034-1.034a.678.678 0 0 0-.063-1.015l-2.307-1.794a.68.68 0 0 0-.58-.122l-2.19.547a1.75 1.75 0 0 1-1.657-.459L5.482 8.062a1.75 1.75 0 0 1-.46-1.657l.548-2.19a.68.68 0 0 0-.122-.58zM1.884.511a1.745 1.745 0 0 1 2.612.163L6.29 2.98c.329.423.445.974.315 1.494l-.547 2.19a.68.68 0 0 0 .178.643l2.457 2.457a.68.68 0 0 0 .644.178l2.189-.547a1.75 1.75 0 0 1 1.494.315l2.306 1.794c.829.645.905 1.87.163 2.611l-1.034 1.034c-.74.74-1.846 1.065-2.877.702a18.6 18.6 0 0 1-7.01-4.42 18.6 18.6 0 0 1-4.42-7.009c-.362-1.03-.037-2.137.703-2.877z"/>
        </symbol>

        <symbol id="icon-email" xmlns="http://www.w3.org/2000/svg" fill="currentColor" class="bi bi-envelope" viewBox="0 0 16 16">
            <path d="M0 4a2 2 0 0 1 2-2h12a2 2 0 0 1 2 2v8a2 2 0 0 1-2 2H2a2 2 0 0 1-2-2zm2-1a1 1 0 0 0-1 1v.217l7 4.2 7-4.2V4a1 1 0 0 0-1-1zm13 2.383-4.708 2.825L15 11.105zm-.034 6.876-5.64-3.471L8 9.583l-1.326-.795-5.64 3.47A1 1 0 0 0 2 13h12a1 1 0 0 0 .966-.741M1 11.105l4.708-2.897L1 5.383z"/>
        </symbol>

        <symbol id="icon-handshake" xmlns="http://www.w3.org/2000/svg" viewBox="0 -960 960 960">
            <path d="M475-160q4 0 8-2t6-4l328-328q12-12 17.5-27t5.5-30q0-16-5.5-30.5T817-607L647-777q-11-12-25.5-17.5T591-800q-15 0-30 5.5T534-777l-11 11 74 75q15 14 22 32t7 38q0 42-28.5 70.5T527-522q-20 0-38.5-7T456-550l-75-74-175 175q-3 3-4.5 6.5T200-435q0 8 6 14.5t14 6.5q4 0 8-2t6-4l136-136 56 56-135 136q-3 3-4.5 6.5T285-350q0 8 6 14t14 6q4 0 8-2t6-4l136-135 56 56-135 136q-3 2-4.5 6t-1.5 8q0 8 6 14t14 6q4 0 7.5-1.5t6.5-4.5l136-135 56 56-136 136q-3 3-4.5 6.5T454-180q0 8 6.5 14t14.5 6m-1 80q-37 0-65.5-24.5T375-166q-34-5-57-28t-28-57q-34-5-56.5-28.5T206-336q-38-5-62-33t-24-66q0-20 7.5-38.5T149-506l232-231 131 131q2 3 6 4.5t8 1.5q9 0 15-5.5t6-14.5q0-4-1.5-8t-4.5-6L398-777q-11-12-25.5-17.5T342-800q-15 0-30 5.5T285-777L144-635q-9 9-15 21t-8 24 0 24.5 8 23.5l-58 58q-17-23-25-50.5T40-590t14-54.5T87-692l141-141q24-23 53.5-35t60.5-12 60.5 12 52.5 35l11 11 11-11q24-23 53.5-35t60.5-12 60.5 12 52.5 35l169 169q23 23 35 53t12 61-12 60.5-35 52.5L545-110q-14 14-32.5 22T474-80m-99-560"/>
        </symbol>

        <!-- MARQUES -->

        <symbol id="icon-tiktok" xmlns="http://www.w3.org/2000/svg" fill="currentColor" class="bi bi-tiktok" viewBox="0 0 16 16">
            <path d="M9 0h1.98c.144.715.54 1.617 1.235 2.512C12.895 3.389 13.797 4 15 4v2c-1.753 0-3.07-.814-4-1.829V11a5 5 0 1 1-5-5v2a3 3 0 1 0 3 3z"/>
        </symbol>
        
        <symbol id="icon-x-twitter" xmlns="http://www.w3.org/2000/svg" fill="currentColor" class="bi bi-twitter-x" viewBox="0 0 16 16">
            <path d="M12.6.75h2.454l-5.36 6.142L16 15.25h-4.937l-3.867-5.07-4.425 5.07H.316l5.733-6.57L0 .75h5.063l3.495 4.633L12.601.75Zm-.86 13.028h1.36L4.323 2.145H2.865z"/>
        </symbol>

        <symbol id="icon-instagram" xmlns="http://www.w3.org/2000/svg" fill="currentColor" class="bi bi-instagram" viewBox="0 0 16 16">
            <path d="M8 0C5.829 0 5.556.01 4.703.048 3.85.088 3.269.222 2.76.42a3.9 3.9 0 0 0-1.417.923A3.9 3.9 0 0 0 .42 2.76C.222 3.268.087 3.85.048 4.7.01 5.555 0 5.827 0 8.001c0 2.172.01 2.444.048 3.297.04.852.174 1.433.372 1.942.205.526.478.972.923 1.417.444.445.89.719 1.416.923.51.198 1.09.333 1.942.372C5.555 15.99 5.827 16 8 16s2.444-.01 3.298-.048c.851-.04 1.434-.174 1.943-.372a3.9 3.9 0 0 0 1.416-.923c.445-.445.718-.891.923-1.417.197-.509.332-1.09.372-1.942C15.99 10.445 16 10.173 16 8s-.01-2.445-.048-3.299c-.04-.851-.175-1.433-.372-1.941a3.9 3.9 0 0 0-.923-1.417A3.9 3.9 0 0 0 13.24.42c-.51-.198-1.092-.333-1.943-.372C10.443.01 10.172 0 7.998 0zm-.717 1.442h.718c2.136 0 2.389.007 3.232.046.78.035 1.204.166 1.486.275.373.145.64.319.92.599s.453.546.598.92c.11.281.24.705.275 1.485.039.843.047 1.096.047 3.231s-.008 2.389-.047 3.232c-.035.78-.166 1.203-.275 1.485a2.5 2.5 0 0 1-.599.919c-.28.28-.546.453-.92.598-.28.11-.704.24-1.485.276-.843.038-1.096.047-3.232.047s-2.39-.009-3.233-.047c-.78-.036-1.203-.166-1.485-.276a2.5 2.5 0 0 1-.92-.598 2.5 2.5 0 0 1-.6-.92c-.109-.281-.24-.705-.275-1.485-.038-.843-.046-1.096-.046-3.233s.008-2.388.046-3.231c.036-.78.166-1.204.276-1.486.145-.373.319-.64.599-.92s.546-.453.92-.598c.282-.11.705-.24 1.485-.276.738-.034 1.024-.044 2.515-.045zm4.988 1.328a.96.96 0 1 0 0 1.92.96.96 0 0 0 0-1.92m-4.27 1.122a4.109 4.109 0 1 0 0 8.217 4.109 4.109 0 0 0 0-8.217m0 1.441a2.667 2.667 0 1 1 0 5.334 2.667 2.667 0 0 1 0-5.334"/>
        </symbol>

        <symbol id="icon-linkedin" xmlns="http://www.w3.org/2000/svg" fill="currentColor" class="bi bi-linkedin" viewBox="0 0 16 16">
            <path d="M0 1.146C0 .513.526 0 1.175 0h13.65C15.474 0 16 .513 16 1.146v13.708c0 .633-.526 1.146-1.175 1.146H1.175C.526 16 0 15.487 0 14.854zm4.943 12.248V6.169H2.542v7.225zm-1.2-8.212c.837 0 1.358-.554 1.358-1.248-.015-.709-.52-1.248-1.342-1.248S2.4 3.226 2.4 3.934c0 .694.521 1.248 1.327 1.248zm4.908 8.212V9.359c0-.216.016-.432.08-.586.173-.431.568-.878 1.232-.878.869 0 1.216.662 1.216 1.634v3.865h2.401V9.25c0-2.22-1.184-3.252-2.764-3.252-1.274 0-1.845.7-2.165 1.193v.025h-.016l.016-.025V6.169h-2.4c.03.678 0 7.225 0 7.225z"/>
        </symbol>

        <symbol id="icon-facebook" xmlns="http://www.w3.org/2000/svg" viewBox="0 0 24 24" fill="currentColor" width="100%" height="100%">
            <path d="M13 2c-2.3 0-3.9 1.4-3.9 4v2.6H6v3.5h2.6V22h3.5v-9.9h2.3l0.3-3.5h-2.6V6c0-0.9 0.5-1.6 1.7-1.6h1.3V2h-2z"/>
        </symbol>
        

        <!-- DRAPEAUX -->
        <symbol id="icon-france" xmlns="http://www.w3.org/2000/svg" viewBox="0 0 32 32">
            <path fill="#fff" d="M10 4H22V28H10z"></path><path d="M5,4h6V28H5c-2.208,0-4-1.792-4-4V8c0-2.208,1.792-4,4-4Z" fill="#092050"></path><path d="M25,4h6V28h-6c-2.208,0-4-1.792-4-4V8c0-2.208,1.792-4,4-4Z" transform="rotate(180 26 16)" fill="#be2a2c"></path>
            <path d="M27,4H5c-2.209,0-4,1.791-4,4V24c0,2.209,1.791,4,4,4H27c2.209,0,4-1.791,4-4V8c0-2.209-1.791-4-4-4Zm3,20c0,1.654-1.346,3-3,3H5c-1.654,0-3-1.346-3-3V8c0-1.654,1.346-3,3-3H27c1.654,0,3,1.346,3,3V24Z" opacity=".15"></path>
            <path d="M27,5H5c-1.657,0-3,1.343-3,3v1c0-1.657,1.343-3,3-3H27c1.657,0,3,1.343,3,3v-1c0-1.657-1.343-3-3-3Z" fill="#fff" opacity=".2">
            </path>
        </symbol>

        <symbol id="icon-uk" xmlns="http://www.w3.org/2000/svg" viewBox="0 0 32 32">
        
            <rect x="1" y="4" width="30" height="24" rx="4" ry="4" fill="#071b65"></rect><path d="M5.101,4h-.101c-1.981,0-3.615,1.444-3.933,3.334L26.899,28h.101c1.981,0,3.615-1.444,3.933-3.334L5.101,4Z" fill="#fff"></path><path d="M22.25,19h-2.5l9.934,7.947c.387-.353,.704-.777,.929-1.257l-8.363-6.691Z" fill="#b92932"></path><path d="M1.387,6.309l8.363,6.691h2.5L2.316,5.053c-.387,.353-.704,.777-.929,1.257Z" fill="#b92932"></path><path d="M5,28h.101L30.933,7.334c-.318-1.891-1.952-3.334-3.933-3.334h-.101L1.067,24.666c.318,1.891,1.952,3.334,3.933,3.334Z" fill="#fff"></path><rect x="13" y="4" width="6" height="24" fill="#fff"></rect><rect x="1" y="13" width="30" height="6" fill="#fff"></rect><rect x="14" y="4" width="4" height="24" fill="#b92932"></rect><rect x="14" y="1" width="4" height="30" transform="translate(32) rotate(90)" fill="#b92932"></rect><path d="M28.222,4.21l-9.222,7.376v1.414h.75l9.943-7.94c-.419-.384-.918-.671-1.471-.85Z" fill="#b92932"></path><path d="M2.328,26.957c.414,.374,.904,.656,1.447,.832l9.225-7.38v-1.408h-.75L2.328,26.957Z" fill="#b92932"></path><path d="M27,4H5c-2.209,0-4,1.791-4,4V24c0,2.209,1.791,4,4,4H27c2.209,0,4-1.791,4-4V8c0-2.209-1.791-4-4-4Zm3,20c0,1.654-1.346,3-3,3H5c-1.654,0-3-1.346-3-3V8c0-1.654,1.346-3,3-3H27c1.654,0,3,1.346,3,3V24Z" opacity=".15"></path><path d="M27,5H5c-1.657,0-3,1.343-3,3v1c0-1.657,1.343-3,3-3H27c1.657,0,3,1.343,3,3v-1c0-1.657-1.343-3-3-3Z" fill="#fff" opacity=".2"></path>
        </symbol>
        
    </defs>

</svg>
